<?xml version="1.0" encoding="UTF-8"?>
<svg xmlns="http://www.w3.org/2000/svg" xmlns:xlink="http://www.w3.org/1999/xlink" width="50pt" height="50pt" viewBox="0 0 50 50" version="1.1">
<g id="surface12851219">
<path style=" stroke:none;fill-rule:nonzero;fill:rgb(100%,100%,100%);fill-opacity:1;" d="M 26.136719 21.332031 L 26.136719 29.292969 L 37.480469 29.292969 C 35.996094 34.113281 31.964844 37.566406 26.136719 37.566406 C 19.195312 37.566406 13.566406 31.941406 13.566406 25 C 13.566406 18.058594 19.195312 12.433594 26.136719 12.433594 C 29.257812 12.433594 32.105469 13.578125 34.304688 15.460938 L 40.167969 9.597656 C 36.464844 6.226562 31.539062 4.167969 26.136719 4.167969 C 14.628906 4.167969 5.296875 13.492188 5.296875 25 C 5.296875 36.507812 14.628906 45.832031 26.136719 45.832031 C 43.628906 45.832031 47.488281 29.480469 45.773438 21.359375 Z M 26.136719 21.332031 "/>
</g>
</svg>
